HIERARCHY
ROOT Hips
{
    OFFSET   0.000000   0.000000   0.000000
    CHANNELS 6 Xposition Yposition Zposition Zrotation Xrotation Yrotation
    JOINT Chest
    {
        OFFSET   0.000000   8.007230   0.000000
        CHANNELS 3 Zrotation Xrotation Yrotation
        JOINT Chest2
        {
            OFFSET   0.000000  22.077100   0.000000
            CHANNELS 3 Zrotation Xrotation Yrotation
            JOINT Neck
            {
                OFFSET   0.000000  23.254800   0.000000
                CHANNELS 3 Zrotation Xrotation Yrotation
                JOINT Head
                {
                    OFFSET   0.000010  14.370000   1.956600
                    CHANNELS 3 Zrotation Xrotation Yrotation
                    End Site
                    {
                        OFFSET   0.000000  19.566000   0.000000
                    }
                }
            }
            JOINT LeftCollar
            {
                OFFSET   3.911900  19.017000  -0.467062
                CHANNELS 3 Zrotation Xrotation Yrotation
                JOINT LeftShoulder
                {
                    OFFSET  10.383700   0.000000   0.000000
                    CHANNELS 3 Zrotation Xrotation Yrotation
                    JOINT LeftElbow
                    {
                        OFFSET  26.662100   0.001193   0.000835
                        CHANNELS 3 Zrotation Xrotation Yrotation
                        JOINT LeftWrist
                        {
                            OFFSET  28.869000  -0.000058  -0.000075
                            CHANNELS 3 Zrotation Xrotation Yrotation
                            JOINT LeftFinger0
                            {
                                OFFSET   2.044660  -2.323460   3.252850
                                CHANNELS 3 Zrotation Xrotation Yrotation
                                JOINT LeftFinger01
                                {
                                    OFFSET   3.088130   0.000000   0.000000
                                    CHANNELS 3 Zrotation Xrotation Yrotation
                                    JOINT LeftFinger02
                                    {
                                        OFFSET   2.639450   0.000000   0.000000
                                        CHANNELS 3 Zrotation Xrotation Yrotation
                                        End Site
                                        {
                                            OFFSET   2.582190   0.000000   0.000000
                                        }
                                    }
                                }
                            }
                            JOINT LeftFinger1
                            {
                                OFFSET   8.364480   0.000000   3.252850
                                CHANNELS 3 Zrotation Xrotation Yrotation
                                JOINT LeftFinger11
                                {
                                    OFFSET   4.646920   0.000000   0.000000
                                    CHANNELS 3 Zrotation Xrotation Yrotation
                                    JOINT LeftFinger12
                                    {
                                        OFFSET   2.323460   0.000000   0.000000
                                        CHANNELS 3 Zrotation Xrotation Yrotation
                                        End Site
                                        {
                                            OFFSET   2.273050   0.000000   0.000000
                                        }
                                    }
                                }
                            }
                            JOINT LeftFinger2
                            {
                                OFFSET   8.364490   0.000016   1.078090
                                CHANNELS 3 Zrotation Xrotation Yrotation
                                JOINT LeftFinger21
                                {
                                    OFFSET   5.111620   0.000000   0.000000
                                    CHANNELS 3 Zrotation Xrotation Yrotation
                                    JOINT LeftFinger22
                                    {
                                        OFFSET   2.788150   0.000012   0.000000
                                        CHANNELS 3 Zrotation Xrotation Yrotation
                                        End Site
                                        {
                                            OFFSET   2.727660   0.000000   0.000000
                                        }
                                    }
                                }
                            }
                            JOINT LeftFinger3
                            {
                                OFFSET   7.899780   0.000014  -1.078090
                                CHANNELS 3 Zrotation Xrotation Yrotation
                                JOINT LeftFinger31
                                {
                                    OFFSET   4.646930   0.000000   0.000000
                                    CHANNELS 3 Zrotation Xrotation Yrotation
                                    JOINT LeftFinger32
                                    {
                                        OFFSET   2.323470   0.000000   0.000000
                                        CHANNELS 3 Zrotation Xrotation Yrotation
                                        End Site
                                        {
                                            OFFSET   2.273050   0.000000   0.000000
                                        }
                                    }
                                }
                            }
                            JOINT LeftFinger4
                            {
                                OFFSET   7.435090   0.000000  -3.252850
                                CHANNELS 3 Zrotation Xrotation Yrotation
                                JOINT LeftFinger41
                                {
                                    OFFSET   3.717550   0.000000   0.000000
                                    CHANNELS 3 Zrotation Xrotation Yrotation
                                    JOINT LeftFinger42
                                    {
                                        OFFSET   1.858770   0.000000   0.000000
                                        CHANNELS 3 Zrotation Xrotation Yrotation
                                        End Site
                                        {
                                            OFFSET   1.818440   0.000000   0.000000
                                        }
                                    }
                                }
                            }
                        }
                    }
                }
            }
            JOINT RightCollar
            {
                OFFSET  -3.911900  19.017000  -0.467063
                CHANNELS 3 Zrotation Xrotation Yrotation
                JOINT RightShoulder
                {
                    OFFSET -10.383700   0.000023   0.000000
                    CHANNELS 3 Zrotation Xrotation Yrotation
                    JOINT RightElbow
                    {
                        OFFSET -26.662100   0.001246   0.001011
                        CHANNELS 3 Zrotation Xrotation Yrotation
                        JOINT RightWrist
                        {
                            OFFSET -28.869000  -0.000026  -0.000078
                            CHANNELS 3 Zrotation Xrotation Yrotation
                            JOINT RightFinger0
                            {
                                OFFSET  -2.044660  -2.323490   3.252850
                                CHANNELS 3 Zrotation Xrotation Yrotation
                                JOINT RightFinger01
                                {
                                    OFFSET  -3.088130   0.000000   0.000000
                                    CHANNELS 3 Zrotation Xrotation Yrotation
                                    JOINT RightFinger02
                                    {
                                        OFFSET  -2.639460   0.000000   0.000000
                                        CHANNELS 3 Zrotation Xrotation Yrotation
                                        End Site
                                        {
                                            OFFSET  -2.582190   0.000000   0.000000
                                        }
                                    }
                                }
                            }
                            JOINT RightFinger1
                            {
                                OFFSET  -8.364480   0.000000   3.252850
                                CHANNELS 3 Zrotation Xrotation Yrotation
                                JOINT RightFinger11
                                {
                                    OFFSET  -4.646920   0.000000   0.000000
                                    CHANNELS 3 Zrotation Xrotation Yrotation
                                    JOINT RightFinger12
                                    {
                                        OFFSET  -2.323470   0.000000   0.000000
                                        CHANNELS 3 Zrotation Xrotation Yrotation
                                        End Site
                                        {
                                            OFFSET  -2.273050   0.000000   0.000000
                                        }
                                    }
                                }
                            }
                            JOINT RightFinger2
                            {
                                OFFSET  -8.364480   0.000000   1.078090
                                CHANNELS 3 Zrotation Xrotation Yrotation
                                JOINT RightFinger21
                                {
                                    OFFSET  -5.111620   0.000000   0.000000
                                    CHANNELS 3 Zrotation Xrotation Yrotation
                                    JOINT RightFinger22
                                    {
                                        OFFSET  -2.788160   0.000000   0.000000
                                        CHANNELS 3 Zrotation Xrotation Yrotation
                                        End Site
                                        {
                                            OFFSET  -2.727660   0.000000   0.000000
                                        }
                                    }
                                }
                            }
                            JOINT RightFinger3
                            {
                                OFFSET  -7.899780   0.000000  -1.078090
                                CHANNELS 3 Zrotation Xrotation Yrotation
                                JOINT RightFinger31
                                {
                                    OFFSET  -4.646930   0.000000   0.000000
                                    CHANNELS 3 Zrotation Xrotation Yrotation
                                    JOINT RightFinger32
                                    {
                                        OFFSET  -2.323470   0.000000   0.000000
                                        CHANNELS 3 Zrotation Xrotation Yrotation
                                        End Site
                                        {
                                            OFFSET  -2.273050   0.000000   0.000000
                                        }
                                    }
                                }
                            }
                            JOINT RightFinger4
                            {
                                OFFSET  -7.435090   0.000000  -3.252850
                                CHANNELS 3 Zrotation Xrotation Yrotation
                                JOINT RightFinger41
                                {
                                    OFFSET  -3.717550   0.000000   0.000000
                                    CHANNELS 3 Zrotation Xrotation Yrotation
                                    JOINT RightFinger42
                                    {
                                        OFFSET  -1.858760   0.000000   0.000000
                                        CHANNELS 3 Zrotation Xrotation Yrotation
                                        End Site
                                        {
                                            OFFSET  -1.818440   0.000000   0.000000
                                        }
                                    }
                                }
                            }
                        }
                    }
                }
            }
        }
    }
    JOINT LeftHip
    {
        OFFSET   9.783010   0.000000   0.000000
        CHANNELS 3 Zrotation Xrotation Yrotation
        JOINT LeftKnee
        {
            OFFSET   0.000073 -41.789100   0.001749
            CHANNELS 3 Zrotation Xrotation Yrotation
            JOINT LeftAnkle
            {
                OFFSET   0.000111 -41.133200  -0.000179
                CHANNELS 3 Zrotation Xrotation Yrotation
                JOINT LeftToe
                {
                    OFFSET   0.000000  -6.358960  14.674500
                    CHANNELS 3 Zrotation Xrotation Yrotation
                    End Site
                    {
                        OFFSET   0.000000   0.000000   3.913200
                    }
                }
            }
        }
    }
    JOINT RightHip
    {
        OFFSET  -9.783010   0.000000   0.000000
        CHANNELS 3 Zrotation Xrotation Yrotation
        JOINT RightKnee
        {
            OFFSET   0.000424 -41.789200   0.005205
            CHANNELS 3 Zrotation Xrotation Yrotation
            JOINT RightAnkle
            {
                OFFSET   0.000000 -41.133200  -0.000155
                CHANNELS 3 Zrotation Xrotation Yrotation
                JOINT RightToe
                {
                    OFFSET   0.000000  -6.358960  14.674500
                    CHANNELS 3 Zrotation Xrotation Yrotation
                    End Site
                    {
                        OFFSET   0.000000   0.000000   3.913200
                    }
                }
            }
        }
    }
}
MOTION
Frames: 4
Frame Time:   0.016667
 -4.621880  89.291300  -0.075541 -13.858700  -7.495500 -38.812900   1.281680   8.127350  -2.692940   2.997860  16.182000  -5.657150   3.739090   2.485590  -0.162251   6.175560   4.974130  12.578300  -2.436960   2.610230  -1.620740 -68.422800  23.443500  -7.548790  -1.740340  -4.413350 -23.514600  17.786000 -16.476900   6.764120  37.696900  31.758900 -60.154400 -33.663700   0.002486   0.003700 -11.831800  -0.002579  -0.001507 -33.224500   5.502140  -8.327930 -27.512000  -0.003038   0.002933 -19.258400  -0.003547   0.003764 -28.560300  -1.296080   2.380230 -37.170800  -0.005915   0.002668 -24.755800  -0.001624  -0.002332 -28.402500  -1.289760   2.383680 -35.418800  -0.004157   0.001894 -23.588900  -0.002469   0.001656 -31.835300  -1.430180   2.302060 -47.797000  -0.000343   0.003843 -31.832800  -0.004737   0.000757   3.709510  -5.972880   1.633660  10.177600 -24.258100  17.222100 -34.019700 -10.475700  28.838000 -58.541500 -20.834600   1.087360 -43.647800  33.975900  71.373300  22.916900  -0.005526  -0.011026   6.458440  -0.003139  -0.003011  29.107200   5.138800   9.123800  24.156300  -0.006103  -0.013567  16.909400  -0.006942  -0.004303  25.661900   0.984260   2.047940  25.105400  -0.002614  -0.030999  16.720200  -0.008929  -0.018817  25.993900   0.011461   0.033176  25.892800  -0.002148  -0.025657  17.244600  -0.008916  -0.015730  32.282800   0.018389   0.024712  48.429200  -0.014656  -0.013698  32.253800  -0.015983  -0.002297   7.296470  20.599700   8.515560   0.156288   3.871780  28.745300  -4.118310  -8.298410  10.969500   0.000000   0.000000  -0.000000   7.262490  11.762500  -6.249460  -0.467564   3.533480   0.140360   2.637220  -1.975640  27.619900  -0.000000   0.000000   0.000000
 -4.503500  89.278800  -0.036832 -13.795000  -7.709010 -38.245400   1.271740   8.131790  -2.622490   2.970400  16.193300  -5.513020   3.600250   2.390590  -0.150270   5.944050   4.789220  13.073900  -2.476100   2.494290  -1.613810 -68.615300  23.445800  -7.492490  -1.622170  -4.309170 -23.454500  17.842600 -16.515800   6.841470  37.665400  31.675800 -59.965200 -33.678500   0.002484   0.003696 -11.839200  -0.002583  -0.001509 -33.223700   5.491230  -8.312390 -27.512000  -0.003036   0.002928 -19.258400  -0.003549   0.003758 -28.556700  -1.343740   2.468040 -37.108800  -0.005912   0.002673 -24.714500  -0.001623  -0.002336 -28.400900  -1.337350   2.471510 -35.419000  -0.004155   0.001884 -23.589000  -0.002473   0.001653 -31.800900  -1.481560   2.387980 -47.746500  -0.000341   0.003834 -31.799400  -0.004739   0.000745   3.813870  -5.851560   1.586590  10.764100 -24.253500  17.527600 -33.499300  -9.862110  29.263400 -57.447500 -20.557100   1.543430 -43.083700  33.463400  71.097400  23.239100  -0.005655  -0.008936   6.619550  -0.003232  -0.003171  30.479200   5.018710   8.541520  25.232000   0.003589  -0.008009  17.662400   0.000695  -0.004049  26.631000   0.937532   1.894080  26.790000  -0.002740  -0.030917  17.842100  -0.011928  -0.018761  26.823700  -0.096435  -0.177068  27.453700  -0.004663  -0.024296  18.284100  -0.009176  -0.012115  33.387700  -0.114299  -0.171455  50.086200  -0.011832  -0.011253  33.357400  -0.017796  -0.002436   7.207710  20.643500   8.529810   0.229363   3.669220  28.429500  -4.047420  -8.169010  10.713100   0.000000   0.000000  -0.000000   7.151740  11.882900  -6.168410  -0.437912   3.475830  -0.164174   2.519560  -1.986780  27.254000   0.000000   0.000000  -0.000000
 -4.380740  89.266900   0.006391 -13.721600  -7.926200 -37.653000   1.263190   8.133380  -2.568150   2.942450  16.198600  -5.401350   3.459380   2.300230  -0.139031   5.708810   4.613110  13.590500  -2.518130   2.388940  -1.594070 -68.834200  23.448700  -7.383760  -1.509480  -4.204240 -23.389000  17.905300 -16.554600   6.916920  37.623300  31.588700 -59.778000 -33.712100   0.002479   0.003692 -11.856100  -0.002587  -0.001509 -33.228600   5.473310  -8.283570 -27.512000  -0.003034   0.002926 -19.258400  -0.003551   0.003752 -28.552200  -1.400550   2.572590 -37.064600  -0.005907   0.002679 -24.685000  -0.001621  -0.002338 -28.400300  -1.394060   2.576100 -35.420600  -0.004153   0.001877 -23.590100  -0.002477   0.001650 -31.770500  -1.543160   2.490000 -47.705300  -0.000337   0.003824 -31.771700  -0.004740   0.000710   3.915030  -5.759820   1.539640  11.648100 -24.405600  18.028400 -32.952400  -9.106370  29.911200 -56.119600 -20.383000   1.866990 -42.118500  32.652800  70.486100  23.594100  -0.005807  -0.006847   6.797040  -0.003337  -0.003334  31.987000   4.846490   7.699360  26.425300   0.013280  -0.002451  18.497700   0.008331  -0.003796  27.500200   0.836967   1.614250  28.802100  -0.003134  -0.030366  19.182200  -0.015764  -0.018375  27.600200  -0.277168  -0.526477  29.250200  -0.007756  -0.022667  19.480600  -0.009307  -0.008501  34.601700  -0.339204  -0.495568  51.907900  -0.009008  -0.008443  34.570600  -0.018317  -0.002574   7.112160  20.691500   8.556290   0.307160   3.443050  28.088700  -3.973420  -8.028680  10.449600   0.000000   0.000000  -0.000000   7.031010  12.007500  -6.088300  -0.403417   3.409720  -0.460789   2.397180  -1.996590  26.856400  -0.000000   0.000000   0.000000
 -4.247100  89.258800   0.048603 -13.638600  -8.139330 -37.044100   1.258090   8.135260  -2.551490   2.930230  16.203200  -5.366650   3.307030   2.208680  -0.127674   5.454980   4.433830  14.234600  -2.570660   2.279690  -1.490500 -69.075100  23.388900  -7.260600  -1.412120  -4.069390 -23.311700  17.975200 -16.552000   6.960370  37.567300  31.525900 -59.668200 -33.762300   0.002471   0.003692 -11.881200  -0.002588  -0.001503 -33.253300   5.420970  -8.197790 -27.524700  -0.003030   0.002924 -19.267300  -0.003545   0.003765 -28.546900  -1.462840   2.687150 -37.077800  -0.005905   0.002675 -24.693800  -0.001619  -0.002340 -28.399900  -1.456190   2.690710 -35.438900  -0.004154   0.001885 -23.602200  -0.002472   0.001653 -31.772600  -1.611450   2.601230 -47.714200  -0.000332   0.003827 -31.777600  -0.004740  -0.008060   4.060720  -5.722210   1.563250  12.869600 -24.887600  18.703500 -32.455500  -8.035900  30.876500 -54.548300 -20.428000   1.941870 -41.364100  31.805300  69.773400  23.874600  -0.005989  -0.013464   6.937290  -0.003452  -0.003495  32.969000   4.762850   7.240720  27.214600   0.012588  -0.002957  19.050200   0.007691  -0.003544  27.872400   0.694571   1.317080  30.595800  -0.007123  -0.028572  20.376800  -0.020122  -0.015816  27.882700  -0.438432  -0.831174  30.668800  -0.010773  -0.022355  20.425400  -0.009162  -0.009482  35.470800  -0.549227  -0.783845  53.212900  -0.011434  -0.006896  35.439700  -0.019211  -0.002705   7.020330  20.735700   8.596320   0.383343   3.203960  27.718900  -3.896320  -7.884190  10.184800  -0.000000   0.000000  -0.000000   6.906000  12.123000  -6.006290  -0.375173   3.345990  -0.731907   2.259220  -2.008040  26.416400   0.000000   0.000000   0.000000
